<svg width="16" height="16" viewBox="0 0 16 16" fill="none" xmlns="http://www.w3.org/2000/svg">
<path d="M8.00023 5.25995L7.2869 6.49995C7.1269 6.77329 7.26023 6.99995 7.57357 6.99995H8.42023C8.74023 6.99995 8.8669 7.22662 8.7069 7.49995L8.00023 8.73995M5.6669 14.6666C7.19357 14.2333 8.8069 14.2333 10.3336 14.6666M5.53357 12.0266V11.2533C4.00023 10.3266 2.74023 8.51995 2.74023 6.59995C2.74023 3.29995 5.77357 0.713288 9.20023 1.45995C10.7069 1.79329 12.0269 2.79329 12.7136 4.17329C14.1069 6.97329 12.6402 9.94662 10.4869 11.2466V12.02C10.4869 12.2133 10.5602 12.66 9.8469 12.66H6.17357C5.44023 12.6666 5.53357 12.38 5.53357 12.0266Z" stroke="white" stroke-width="1.5" stroke-linecap="round" stroke-linejoin="round"/>
</svg>
