<svg width="158" height="51" viewBox="0 0 158 51" fill="none" xmlns="http://www.w3.org/2000/svg">
<g clip-path="url(#clip0_147_8498)">
<path d="M114.562 15.6851C117.691 15.6851 120.116 17.5411 120.116 21.7373V31.6631H116.502V30.3719C115.563 31.3726 114.139 31.8083 112.606 31.8083C109.555 31.8083 106.223 30.0491 106.223 27.4345V27.2893C106.363 24.6747 108.616 23.4158 111.01 22.6411C110.212 21.818 109.868 20.8497 109.868 19.8813C109.868 17.8477 111.495 15.911 113.936 15.7335C114.139 15.7335 114.358 15.7012 114.562 15.7012V15.6851ZM116.518 22.157C114.296 23.5127 110.134 23.2383 109.884 27.0633V27.3538C109.884 29.3229 111.417 30.4688 113.216 30.4688H113.529C115.156 30.3558 116.518 28.9355 116.518 27.5637V22.157ZM113.842 17.2506C112.528 17.2506 111.37 18.3965 111.37 19.8329C111.37 20.5914 111.714 21.4145 112.512 22.1892C114.624 21.6244 116.471 21.2532 116.471 20.3978C116.33 19.0743 115.595 17.3474 113.999 17.2506H113.827H113.842Z" fill="#005666"/>
<path d="M123.418 7.37354H127.032V31.6956H123.418V7.37354Z" fill="#005666"/>
<path d="M130.334 7.37354H133.948V31.6956H130.334V7.37354Z" fill="#005666"/>
<path d="M150.625 15.7339C149.89 17.7514 149.17 19.7688 148.435 21.7862C147.105 25.4983 145.775 29.2103 144.43 32.9224C142.787 37.506 139.063 41.1696 134.041 40.976C131.412 40.863 128.94 39.7332 126.468 38.8133C123.996 37.8933 121.274 37.1671 118.739 37.9418C117.049 38.4582 115.61 39.6041 114.186 40.6693C112.762 41.7345 111.229 42.7997 109.492 43.0902C107.74 43.3969 105.722 42.7352 104.924 41.1051C106.895 41.1535 108.679 39.9753 110.181 38.6519C111.683 37.3446 113.06 35.8114 114.828 34.9075C117.722 33.4227 121.18 33.8423 124.278 34.7784C127.36 35.7145 130.348 37.1348 133.54 37.6028C136.998 38.1193 141.473 37.2962 142.802 33.568L136.998 15.7017H140.925L144.868 27.8385L146.401 23.5454C146.933 22.0444 147.105 20.5112 147.105 19.1878C147.105 17.1542 146.714 15.7017 146.714 15.7017H150.641L150.625 15.7339Z" fill="#005666"/>
<path d="M20.4686 21.1404C19.7176 17.8479 17.6211 15.8628 14.7422 15.8628C13.3811 15.8628 11.7539 16.5245 10.909 17.3638V15.9919H7.37305V39.733H10.8934V30.243C11.4097 30.8402 12.5205 31.6471 14.0538 31.6471C14.2259 31.6471 14.398 31.6471 14.5701 31.6148C18.4034 31.2275 20.672 26.999 20.672 23.1417C20.672 22.4477 20.6094 21.7698 20.4686 21.1404ZM17.1673 25.0461C16.5884 27.3218 15.2742 29.1778 14.0069 29.775C13.7409 29.9202 13.4593 29.9525 13.2246 29.9525C11.8634 29.9525 10.8777 28.3063 10.8777 27.0151V23.3838C10.8777 20.2043 12.7083 17.396 14.6014 17.396C14.8048 17.396 15.0395 17.4283 15.2429 17.509C16.7762 18.0416 17.5116 19.8492 17.5116 22.1249C17.5116 23.0287 17.402 24.0455 17.1361 25.0623L17.1673 25.0461Z" fill="#005666"/>
<path d="M29.4179 15.8467C25.4125 15.8467 22.1582 19.3812 22.1582 23.7227C22.1582 28.0642 25.4125 31.5987 29.4179 31.5987C33.4232 31.5987 36.6775 28.0642 36.6775 23.7227C36.6775 19.3812 33.4232 15.8467 29.4179 15.8467ZM31.0763 30.0171C30.8729 30.0816 30.6695 30.0816 30.4661 30.0816C28.6356 30.0816 26.6329 27.8383 25.8193 24.7234C25.5846 23.7711 25.4438 22.835 25.4438 21.9635C25.4438 19.6556 26.2887 17.8318 27.7438 17.4122C27.9472 17.3476 28.1506 17.3476 28.354 17.3476C30.1845 17.3476 32.1872 19.591 33.0008 22.7059C33.2355 23.6582 33.3763 24.562 33.3763 25.4335C33.3763 27.7414 32.5001 29.5975 31.0763 30.0171Z" fill="#005666"/>
<path d="M60.9613 15.9761V16.3957C60.9613 17.3641 60.8048 19.8011 59.2246 22.0606C59.1463 22.1736 59.0681 22.2704 58.9899 22.3834L58.411 23.1258L57.8321 23.9005L56.909 25.0948V15.9922H53.3887V31.486H56.909V27.1768L57.8321 25.9825L59.2246 24.1749L59.5375 23.7714L59.8191 23.3841L60.0382 23.1097L65.4986 15.9761H60.9613Z" fill="#005666"/>
<path d="M61.8844 31.4534V31.0338C61.8844 30.017 61.7123 27.4025 59.913 25.0461L59.2402 24.1746L59.5531 23.7711L59.8348 23.3837L60.0538 23.1094L60.4606 23.6581L60.7422 24.0455L66.4217 31.4696H61.8844V31.4534Z" fill="#005666"/>
<path d="M74.5405 23.3031L77.1377 21.5923L77.2316 21.5278L79.2499 20.172C79.422 20.0591 79.5628 19.9138 79.7349 19.7847C79.5784 19.5103 79.4376 19.236 79.2342 18.9939C79.2342 18.9616 79.2029 18.9132 79.1716 18.897C79.1091 18.8163 79.0778 18.7679 79.0152 18.7034C77.8887 17.2185 76.2615 16.1856 74.384 15.9274C74.0711 15.8628 73.7425 15.8467 73.414 15.8467C72.8351 15.8467 72.2718 15.9274 71.7555 16.0565C68.5481 16.8635 66.1543 19.9945 66.1543 23.7066C66.1543 24.8202 66.3733 25.8854 66.7645 26.8538C66.9366 27.2734 67.14 27.6769 67.3747 28.0642C68.6733 30.1946 70.8793 31.5826 73.3983 31.5826C75.6983 31.5826 77.2941 30.7918 78.5458 29.7104C78.9526 29.3554 79.3437 28.9842 79.7036 28.5645L78.2955 27.9351C78.1234 28.1288 77.9356 28.2902 77.7322 28.4354C77.5758 28.5645 77.4193 28.6936 77.2472 28.7582C77.0594 28.8712 76.8561 28.968 76.6683 29.0487C76.5744 29.1133 76.4649 29.1455 76.371 29.1617C76.2615 29.194 76.1676 29.2262 76.0738 29.2585H76.0581C75.886 29.3231 75.6983 29.3554 75.5418 29.3715C75.3697 29.3876 75.1976 29.4038 75.0568 29.4038C74.165 29.3715 73.2419 29.1455 72.397 28.6129C72.3813 28.6129 72.3657 28.6129 72.3344 28.5968C71.8963 28.2902 71.5365 27.919 71.1923 27.5155C71.1297 27.4832 71.114 27.4348 71.0827 27.3864C70.8324 27.0958 70.6134 26.7731 70.41 26.4341C70.3474 26.3373 70.3004 26.2405 70.2379 26.1436L70.3161 26.0791L71.7242 25.1591L73.2106 24.1746L74.5248 23.2869M69.8311 24.7234C69.8311 24.7234 69.7998 24.5942 69.7998 24.5297C69.5807 23.642 69.4556 22.8189 69.4556 21.9797C69.4556 19.8815 70.1909 18.1546 71.3957 17.5575C71.5052 17.4768 71.6147 17.4445 71.7555 17.3961C71.9589 17.3638 72.131 17.3154 72.3344 17.3154C72.5847 17.3154 72.8194 17.3476 73.0385 17.4283C74.2119 17.7511 75.3541 18.897 76.1833 20.5594L75.4323 21.0597L73.7738 22.1572L72.7881 22.835L69.8467 24.7879C69.8467 24.7879 69.8311 24.7234 69.8311 24.7072V24.7234Z" fill="#005666"/>
<path d="M89.1072 27.4511C89.1072 29.5815 88.5909 30.3239 87.7461 30.3239C87.1046 30.3239 86.6665 29.7913 86.6665 28.7422V17.2994H90.8752V16.0083H86.6665V11.812H83.1462V16.0083H80.4395V17.2994H83.1462V27.903C83.1462 29.9688 84.57 31.6151 87.5583 31.6151C90.3433 31.6151 92.6432 30.4207 92.6432 27.4511H89.1229H89.1072Z" fill="#005666"/>
<path d="M52.2614 27.5639C50.3214 31.2276 46.1439 32.8254 42.6862 31.163C42.6236 31.1307 42.5454 31.0984 42.4828 31.05C39.7604 29.9364 37.8047 27.0636 37.8047 23.7066C37.8047 19.3651 41.059 15.8306 45.0644 15.8306C45.4555 15.8306 45.831 15.8628 46.2065 15.9113C48.4282 16.2986 50.3057 17.7673 51.3853 19.7847L51.0098 19.9945L49.6486 20.7854H49.6329L48.3343 21.5439C48.2248 21.2695 48.1153 20.979 47.9745 20.7208C47.6616 20.0914 47.333 19.5426 46.9419 19.0746C46.4568 18.4774 45.9249 18.0094 45.3616 17.7027C44.9235 17.4606 44.4698 17.3315 44.0161 17.3315C43.8127 17.3315 43.6406 17.3315 43.4372 17.3961C41.9821 17.8157 41.0903 19.6717 41.0903 21.9797C41.0903 22.8512 41.2311 23.7712 41.4658 24.7072C41.591 25.143 41.7318 25.5949 41.9195 25.9984C41.9978 26.2243 42.1073 26.4019 42.2325 26.5955C42.295 26.7408 42.3733 26.8376 42.4359 26.9506C42.5141 27.0797 42.5923 27.1927 42.6862 27.3218C42.8739 27.5801 43.093 27.8221 43.3277 28.032C43.3903 28.1127 43.4841 28.1933 43.5624 28.2579C43.5936 28.274 43.6249 28.3063 43.6719 28.3225C43.8909 28.5161 44.1256 28.6775 44.4072 28.7905C44.4698 28.8389 44.548 28.8712 44.6106 28.9196C44.6576 28.9358 44.7201 28.968 44.7827 28.9842C44.9235 29.0326 45.0487 29.0649 45.1895 29.1294C45.3147 29.1617 45.4399 29.194 45.565 29.2424C45.5963 29.2585 45.6276 29.2586 45.6745 29.2586C45.8154 29.2747 45.9405 29.307 46.0813 29.3231C46.363 29.3392 46.6602 29.3392 46.9419 29.307H46.9888C47.1765 29.307 47.3799 29.2747 47.5677 29.1779C47.599 29.1779 47.6146 29.1617 47.6459 29.1456C47.7554 29.1133 47.8493 29.0649 47.9745 29.0003C48.0527 28.9519 48.1622 28.8712 48.2561 28.8228C48.9758 28.2902 49.6329 27.4025 50.0554 26.2566L52.2771 27.5316L52.2614 27.5639Z" fill="#005666"/>
<path d="M98.7766 24.8689C100.107 24.8689 101.186 23.7561 101.186 22.3834C101.186 21.0107 100.107 19.8979 98.7766 19.8979C97.4459 19.8979 96.3672 21.0107 96.3672 22.3834C96.3672 23.7561 97.4459 24.8689 98.7766 24.8689Z" fill="#005666"/>
</g>
<defs>
<clipPath id="clip0_147_8498">
<rect width="143.253" height="35.8133" fill="white" transform="translate(7.37305 7.37354)"/>
</clipPath>
</defs>
</svg>
