<svg width="45" height="45" viewBox="0 0 45 45" fill="none" xmlns="http://www.w3.org/2000/svg">
<g filter="url(#filter0_b_132_12824)">
<rect width="45" height="45" rx="22.5" fill="white" fill-opacity="0.24"/>
<path d="M31.9717 15.7577C31.6672 15.6333 31.3318 15.6006 31.0083 15.6638C30.6847 15.7269 30.3877 15.883 30.155 16.1122L28 18.2248L24.1783 14.4784C23.8658 14.1721 23.4419 14 23 14C22.5581 14 22.1342 14.1721 21.8217 14.4784L18 18.2248L15.845 16.1122C15.6119 15.8838 15.315 15.7282 14.9917 15.6652C14.6685 15.6022 14.3334 15.6346 14.0289 15.7582C13.7244 15.8818 13.4641 16.0912 13.281 16.3598C13.0979 16.6284 13.0001 16.9443 13 17.2674V25.9154C13.0013 26.9983 13.4407 28.0365 14.2218 28.8022C15.003 29.5679 16.062 29.9987 17.1667 30H28.8333C29.938 29.9987 30.997 29.5679 31.7782 28.8022C32.5593 28.0365 32.9987 26.9983 33 25.9154V17.2674C33.0001 16.9442 32.9024 16.6284 32.7194 16.3596C32.5364 16.0909 32.2761 15.8814 31.9717 15.7577ZM31.3333 25.9154C31.3333 26.5653 31.0699 27.1887 30.6011 27.6483C30.1323 28.1079 29.4964 28.3661 28.8333 28.3661H17.1667C16.5036 28.3661 15.8677 28.1079 15.3989 27.6483C14.9301 27.1887 14.6667 26.5653 14.6667 25.9154V17.2674L17.4108 19.9575C17.5671 20.1107 17.779 20.1967 18 20.1967C18.221 20.1967 18.4329 20.1107 18.5892 19.9575L23 15.6335L27.4108 19.9575C27.5671 20.1107 27.779 20.1967 28 20.1967C28.221 20.1967 28.4329 20.1107 28.5892 19.9575L31.3333 17.2674V25.9154Z" fill="white"/>
</g>
<defs>
<filter id="filter0_b_132_12824" x="-2.59615" y="-2.59615" width="50.1923" height="50.1923" filterUnits="userSpaceOnUse" color-interpolation-filters="sRGB">
<feFlood flood-opacity="0" result="BackgroundImageFix"/>
<feGaussianBlur in="BackgroundImageFix" stdDeviation="1.29808"/>
<feComposite in2="SourceAlpha" operator="in" result="effect1_backgroundBlur_132_12824"/>
<feBlend mode="normal" in="SourceGraphic" in2="effect1_backgroundBlur_132_12824" result="shape"/>
</filter>
</defs>
</svg>
